<svg width="38" height="26" viewBox="0 0 38 26" fill="none" xmlns="http://www.w3.org/2000/svg">
<path opacity="0.4" d="M5.57143 11.1429C6.30604 11.1429 7.02416 10.925 7.63497 10.5169C8.24578 10.1088 8.72186 9.52867 9.00298 8.84997C9.28411 8.17127 9.35766 7.42445 9.21434 6.70395C9.07103 5.98345 8.71728 5.32163 8.19782 4.80218C7.67837 4.28272 7.01655 3.92897 6.29605 3.78566C5.57555 3.64234 4.82873 3.71589 4.15003 3.99702C3.47134 4.27814 2.89124 4.75421 2.48311 5.36503C2.07498 5.97584 1.85714 6.69396 1.85714 7.42857C1.85714 8.41366 2.24847 9.35841 2.94503 10.055C3.6416 10.7515 4.58634 11.1429 5.57143 11.1429ZM31.5714 11.1429C32.306 11.1429 33.0242 10.925 33.635 10.5169C34.2458 10.1088 34.7219 9.52867 35.003 8.84997C35.2841 8.17127 35.3577 7.42445 35.2143 6.70395C35.071 5.98345 34.7173 5.32163 34.1978 4.80218C33.6784 4.28272 33.0165 3.92897 32.296 3.78566C31.5755 3.64234 30.8287 3.71589 30.15 3.99702C29.4713 4.27814 28.8912 4.75421 28.4831 5.36503C28.075 5.97584 27.8571 6.69396 27.8571 7.42857C27.8571 8.41366 28.2485 9.35841 28.945 10.055C29.6416 10.7515 30.5863 11.1429 31.5714 11.1429ZM33.4286 13H29.7143C28.7339 12.9991 27.7932 13.3871 27.0986 14.0789C28.2738 14.7195 29.2811 15.6285 30.0388 16.7318C30.7964 17.8351 31.283 19.1017 31.4588 20.4286H35.2857C35.7783 20.4286 36.2506 20.2329 36.5989 19.8846C36.9472 19.5363 37.1429 19.064 37.1429 18.5714V16.7143C37.1429 15.7292 36.7515 14.7845 36.055 14.0879C35.3584 13.3913 34.4137 13 33.4286 13ZM3.71429 13C2.7292 13 1.78445 13.3913 1.08789 14.0879C0.391325 14.7845 0 15.7292 0 16.7143L0 18.5714C0 19.064 0.195663 19.5363 0.543945 19.8846C0.892226 20.2329 1.3646 20.4286 1.85714 20.4286H5.68402C5.85987 19.1017 6.34641 17.8351 7.10406 16.7318C7.86171 15.6285 8.86908 14.7195 10.0442 14.0789C9.34963 13.3871 8.40893 12.9991 7.42857 13H3.71429ZM18.5714 0L15.7857 1.39286L13 0V4.64286H24.1429V0L21.3571 1.39286L18.5714 0Z" fill="url(#paint0_linear)"/>
<path d="M18.5716 13C20.0492 13 21.4663 12.413 22.5112 11.3682C23.556 10.3233 24.143 8.90621 24.143 7.42857V6.5H13.0001V7.42857C13.0001 8.90621 13.5871 10.3233 14.632 11.3682C15.6768 12.413 17.0939 13 18.5716 13ZM23.0287 14.8571H22.5464C21.337 15.4375 19.9992 15.7857 18.5716 15.7857C17.1439 15.7857 15.8067 15.4375 14.5967 14.8571H14.1144C12.3413 14.8571 10.6407 15.5615 9.38691 16.8153C8.1331 18.0692 7.42871 19.7697 7.42871 21.5429V23.2143C7.42871 23.9531 7.7222 24.6617 8.24463 25.1841C8.76705 25.7065 9.47561 26 10.2144 26H26.9287C27.6675 26 28.3761 25.7065 28.8985 25.1841C29.4209 24.6617 29.7144 23.9531 29.7144 23.2143V21.5429C29.7144 19.7697 29.01 18.0692 27.7562 16.8153C26.5024 15.5615 24.8019 14.8571 23.0287 14.8571Z" fill="url(#paint1_linear)"/>
<defs>
<linearGradient id="paint0_linear" x1="6.9184e-08" y1="10.2143" x2="37.1429" y2="10.2143" gradientUnits="userSpaceOnUse">
<stop stop-color="#69E755"/>
<stop offset="1" stop-color="#00A15B"/>
</linearGradient>
<linearGradient id="paint1_linear" x1="7.42871" y1="16.25" x2="29.7144" y2="16.25" gradientUnits="userSpaceOnUse">
<stop stop-color="#69E755"/>
<stop offset="1" stop-color="#00A15B"/>
</linearGradient>
</defs>
</svg>
