<svg width="23" height="26" viewBox="0 0 23 26" fill="none" xmlns="http://www.w3.org/2000/svg">
<path opacity="0.4" d="M7.71875 11.375H3.65625V7.71875C3.65625 3.46328 7.11953 0 11.375 0C15.6305 0 19.0938 3.46328 19.0938 7.71875V11.375H15.0312V7.71875C15.0312 6.74905 14.646 5.81907 13.9604 5.13339C13.2747 4.44771 12.3447 4.0625 11.375 4.0625C10.4053 4.0625 9.47532 4.44771 8.78964 5.13339C8.10396 5.81907 7.71875 6.74905 7.71875 7.71875V11.375Z" fill="url(#paint0_linear)"/>
<path d="M20.3125 11.375H2.4375C1.79103 11.375 1.17105 11.6318 0.713927 12.0889C0.256807 12.546 0 13.166 0 13.8125L0 23.5625C0 24.209 0.256807 24.829 0.713927 25.2861C1.17105 25.7432 1.79103 26 2.4375 26H20.3125C20.959 26 21.579 25.7432 22.0361 25.2861C22.4932 24.829 22.75 24.209 22.75 23.5625V13.8125C22.75 13.166 22.4932 12.546 22.0361 12.0889C21.579 11.6318 20.959 11.375 20.3125 11.375ZM13.4062 19.8555C13.4062 20.3942 13.1922 20.9108 12.8113 21.2918C12.4304 21.6727 11.9137 21.8867 11.375 21.8867C10.8363 21.8867 10.3196 21.6727 9.93869 21.2918C9.55776 20.9108 9.34375 20.3942 9.34375 19.8555V17.418C9.34375 16.8792 9.55776 16.3626 9.93869 15.9817C10.3196 15.6007 10.8363 15.3867 11.375 15.3867C11.9137 15.3867 12.4304 15.6007 12.8113 15.9817C13.1922 16.3626 13.4062 16.8792 13.4062 17.418V19.8555Z" fill="url(#paint1_linear)"/>
<defs>
<linearGradient id="paint0_linear" x1="3.65625" y1="5.68753" x2="19.0938" y2="5.68753" gradientUnits="userSpaceOnUse">
<stop stop-color="#FF494B"/>
<stop offset="1" stop-color="#FFC700"/>
</linearGradient>
<linearGradient id="paint1_linear" x1="0" y1="18.6875" x2="22.75" y2="18.6875" gradientUnits="userSpaceOnUse">
<stop stop-color="#FF494B"/>
<stop offset="1" stop-color="#FFC700"/>
</linearGradient>
</defs>
</svg>
