<svg width="31" height="22" viewBox="0 0 31 22" fill="none" xmlns="http://www.w3.org/2000/svg">
<g opacity="0.15">
<path opacity="0.4" d="M4.65 9.27047C5.26312 9.27047 5.86247 9.08923 6.37227 8.74968C6.88206 8.41012 7.2794 7.9275 7.51403 7.36284C7.74866 6.79819 7.81005 6.17685 7.69043 5.57741C7.57082 4.97797 7.27557 4.42736 6.84203 3.99518C6.40849 3.56301 5.85612 3.2687 5.25478 3.14947C4.65344 3.03023 4.03013 3.09143 3.46368 3.32532C2.89723 3.55921 2.41308 3.95528 2.07244 4.46346C1.73181 4.97164 1.55 5.5691 1.55 6.18028C1.55077 6.99961 1.87762 7.78517 2.45882 8.36453C3.04001 8.94388 3.82806 9.2697 4.65 9.27047ZM27.9 10.8156H24.8C23.9812 10.8147 23.1956 11.1377 22.6155 11.7137C23.5966 12.2459 24.4376 13.0019 25.0698 13.9199C25.702 14.8379 26.1074 15.892 26.2531 16.9959H29.45C29.8611 16.9959 30.2553 16.8332 30.546 16.5434C30.8367 16.2536 31 15.8606 31 15.4508V13.9058C30.9992 13.0864 30.6724 12.3009 30.0912 11.7215C29.51 11.1421 28.7219 10.8163 27.9 10.8156ZM3.1 10.8156C2.27806 10.8163 1.49001 11.1421 0.908819 11.7215C0.327623 12.3009 0.000769482 13.0864 0 13.9058V15.4508C0 15.8606 0.163303 16.2536 0.453984 16.5434C0.744666 16.8332 1.13891 16.9959 1.55 16.9959H4.74203C4.88961 15.8919 5.29638 14.8382 5.92929 13.9204C6.5622 13.0025 7.4034 12.2465 8.38453 11.7137C7.80443 11.1377 7.01876 10.8147 6.2 10.8156H3.1ZM26.35 9.27047C26.9631 9.27047 27.5625 9.08923 28.0723 8.74968C28.5821 8.41012 28.9794 7.9275 29.214 7.36284C29.4487 6.79819 29.51 6.17685 29.3904 5.57741C29.2708 4.97797 28.9756 4.42736 28.542 3.99518C28.1085 3.56301 27.5561 3.2687 26.9548 3.14947C26.3534 3.03023 25.7301 3.09143 25.1637 3.32532C24.5972 3.55921 24.1131 3.95528 23.7724 4.46346C23.4318 4.97164 23.25 5.5691 23.25 6.18028C23.2508 6.99961 23.5776 7.78517 24.1588 8.36453C24.74 8.94388 25.5281 9.2697 26.35 9.27047Z" fill="url(#paint0_linear)"/>
<path d="M19.2202 12.3608H18.8182C17.7847 12.8643 16.6505 13.1284 15.5002 13.1333C14.3086 13.1333 13.1946 12.8436 12.1822 12.3608H11.7802C10.3004 12.3611 8.88133 12.9473 7.83496 13.9904C6.7886 15.0334 6.20058 16.448 6.2002 17.9231V19.3137C6.2002 19.9284 6.44515 20.5179 6.88117 20.9525C7.31719 21.3872 7.90857 21.6313 8.5252 21.6313H22.4752C23.0918 21.6313 23.6832 21.3872 24.1192 20.9525C24.5552 20.5179 24.8002 19.9284 24.8002 19.3137V17.9231C24.7998 16.448 24.2118 15.0334 23.1654 13.9904C22.1191 12.9473 20.7 12.3611 19.2202 12.3608ZM15.5002 10.8157C16.5732 10.8157 17.622 10.4985 18.5142 9.90428C19.4063 9.31006 20.1016 8.46548 20.5122 7.47732C20.9228 6.48917 21.0303 5.40184 20.821 4.35282C20.6116 3.3038 20.0949 2.34022 19.3363 1.58392C18.5775 0.827621 17.6109 0.312575 16.5586 0.103912C15.5062 -0.10475 14.4154 0.00234312 13.4241 0.411649C12.4328 0.820955 11.5856 1.51409 10.9895 2.4034C10.3934 3.29272 10.0752 4.33827 10.0752 5.40783C10.0748 6.11811 10.2149 6.82149 10.4874 7.47777C10.7599 8.13405 11.1595 8.73036 11.6633 9.2326C12.1671 9.73484 12.7653 10.1332 13.4237 10.4048C14.082 10.6764 14.7877 10.816 15.5002 10.8157Z" fill="url(#paint1_linear)"/>
</g>
<defs>
<linearGradient id="paint0_linear" x1="5.7742e-08" y1="10.043" x2="31" y2="10.043" gradientUnits="userSpaceOnUse">
<stop stop-color="#838C94"/>
<stop offset="1" stop-color="#4E575F"/>
</linearGradient>
<linearGradient id="paint1_linear" x1="6.2002" y1="10.8157" x2="24.8002" y2="10.8157" gradientUnits="userSpaceOnUse">
<stop stop-color="#838C94"/>
<stop offset="1" stop-color="#4E575F"/>
</linearGradient>
</defs>
</svg>
