<svg width="26" height="28" viewBox="0 0 26 28" fill="none" xmlns="http://www.w3.org/2000/svg">
<g filter="url(#filter0_f)">
<path opacity="0.65" d="M11.6729 14.564V13.817H14.1826V14.564C14.1826 14.5878 14.1331 14.6106 14.0449 14.6274C13.9568 14.6442 13.8372 14.6536 13.7125 14.6536H12.143C12.0183 14.6536 11.8987 14.6442 11.8106 14.6274C11.7224 14.6106 11.6729 14.5878 11.6729 14.564Z" fill="url(#paint0_linear)"/>
<path opacity="0.65" d="M11.6729 16.2372V15.4902H14.1826V16.2372C14.1826 16.261 14.1331 16.2838 14.0449 16.3006C13.9568 16.3174 13.8372 16.3268 13.7125 16.3268H12.143C12.0183 16.3268 11.8987 16.3174 11.8106 16.3006C11.7224 16.2838 11.6729 16.261 11.6729 16.2372Z" fill="url(#paint1_linear)"/>
<path opacity="0.65" d="M11.6729 17.9104V17.1635H14.1826V17.9104C14.1826 17.9342 14.1331 17.957 14.0449 17.9738C13.9568 17.9906 13.8372 18.0001 13.7125 18.0001H12.143C12.0183 18.0001 11.8987 17.9906 11.8106 17.9738C11.7224 17.957 11.6729 17.9342 11.6729 17.9104Z" fill="url(#paint2_linear)"/>
<path d="M10.1077 12.734L12.6688 10.1049C12.7377 10.0377 12.8309 10 12.9281 10C13.0253 10 13.1185 10.0377 13.1874 10.1049L15.7484 12.734C15.9788 12.9595 15.8155 13.3464 15.4891 13.3464H10.367C10.0403 13.3464 9.87769 12.9619 10.1077 12.734Z" fill="url(#paint3_linear)"/>
</g>
<path opacity="0.65" d="M11.6729 14.564V13.817H14.1826V14.564C14.1826 14.5878 14.1331 14.6106 14.0449 14.6274C13.9568 14.6442 13.8372 14.6536 13.7125 14.6536H12.143C12.0183 14.6536 11.8987 14.6442 11.8106 14.6274C11.7224 14.6106 11.6729 14.5878 11.6729 14.564Z" fill="url(#paint4_linear)"/>
<path opacity="0.65" d="M11.6729 16.2372V15.4902H14.1826V16.2372C14.1826 16.261 14.1331 16.2838 14.0449 16.3006C13.9568 16.3174 13.8372 16.3268 13.7125 16.3268H12.143C12.0183 16.3268 11.8987 16.3174 11.8106 16.3006C11.7224 16.2838 11.6729 16.261 11.6729 16.2372Z" fill="url(#paint5_linear)"/>
<path opacity="0.65" d="M11.6729 17.9104V17.1635H14.1826V17.9104C14.1826 17.9342 14.1331 17.957 14.0449 17.9738C13.9568 17.9906 13.8372 18.0001 13.7125 18.0001H12.143C12.0183 18.0001 11.8987 17.9906 11.8106 17.9738C11.7224 17.957 11.6729 17.9342 11.6729 17.9104Z" fill="url(#paint6_linear)"/>
<path d="M10.1077 12.734L12.6688 10.1049C12.7377 10.0377 12.8309 10 12.9281 10C13.0253 10 13.1185 10.0377 13.1874 10.1049L15.7484 12.734C15.9788 12.9595 15.8155 13.3464 15.4891 13.3464H10.367C10.0403 13.3464 9.87769 12.9619 10.1077 12.734Z" fill="url(#paint7_linear)"/>
<defs>
<filter id="filter0_f" x="0" y="0" width="25.8562" height="28.0001" filterUnits="userSpaceOnUse" color-interpolation-filters="sRGB">
<feFlood flood-opacity="0" result="BackgroundImageFix"/>
<feBlend mode="normal" in="SourceGraphic" in2="BackgroundImageFix" result="shape"/>
<feGaussianBlur stdDeviation="5" result="effect1_foregroundBlur"/>
</filter>
<linearGradient id="paint0_linear" x1="11.6729" y1="14.2353" x2="14.1826" y2="14.2353" gradientUnits="userSpaceOnUse">
<stop stop-color="#69E755"/>
<stop offset="1" stop-color="#00A15B"/>
</linearGradient>
<linearGradient id="paint1_linear" x1="11.6729" y1="15.9085" x2="14.1826" y2="15.9085" gradientUnits="userSpaceOnUse">
<stop stop-color="#69E755"/>
<stop offset="1" stop-color="#00A15B"/>
</linearGradient>
<linearGradient id="paint2_linear" x1="11.6729" y1="17.5818" x2="14.1826" y2="17.5818" gradientUnits="userSpaceOnUse">
<stop stop-color="#69E755"/>
<stop offset="1" stop-color="#00A15B"/>
</linearGradient>
<linearGradient id="paint3_linear" x1="10" y1="11.6732" x2="15.8562" y2="11.6732" gradientUnits="userSpaceOnUse">
<stop stop-color="#69E755"/>
<stop offset="1" stop-color="#00A15B"/>
</linearGradient>
<linearGradient id="paint4_linear" x1="11.6729" y1="14.2353" x2="14.1826" y2="14.2353" gradientUnits="userSpaceOnUse">
<stop stop-color="#69E755"/>
<stop offset="1" stop-color="#00A15B"/>
</linearGradient>
<linearGradient id="paint5_linear" x1="11.6729" y1="15.9085" x2="14.1826" y2="15.9085" gradientUnits="userSpaceOnUse">
<stop stop-color="#69E755"/>
<stop offset="1" stop-color="#00A15B"/>
</linearGradient>
<linearGradient id="paint6_linear" x1="11.6729" y1="17.5818" x2="14.1826" y2="17.5818" gradientUnits="userSpaceOnUse">
<stop stop-color="#69E755"/>
<stop offset="1" stop-color="#00A15B"/>
</linearGradient>
<linearGradient id="paint7_linear" x1="10" y1="11.6732" x2="15.8562" y2="11.6732" gradientUnits="userSpaceOnUse">
<stop stop-color="#69E755"/>
<stop offset="1" stop-color="#00A15B"/>
</linearGradient>
</defs>
</svg>
