<svg width="251px" height="180px" viewBox="0 0 251 180" version="1.1" xmlns="http://www.w3.org/2000/svg" xmlns:xlink="http://www.w3.org/1999/xlink">
    <defs>
        <linearGradient x1="50%" y1="2.55102041%" x2="50%" y2="97.9591837%" id="linearGradient-1">
            <stop stop-color="#68E755" offset="0%"></stop>
            <stop stop-color="#02A25B" offset="100%"></stop>
        </linearGradient>
    </defs>
    <g id="Page-1" stroke="none" stroke-width="1" fill="none" fill-rule="evenodd">
        <g id="1_5_1_HC_BATTLE-page-PLAY-WIN_LOST" transform="translate(-121.000000, -409.000000)">
            <rect x="0" y="0" width="1366" height="1345"></rect>
            <g id="weapon-rolls" transform="translate(30.000000, 383.000000)" opacity="0.123833955">
                <g id="Laurel-wreath" transform="translate(91.000000, 26.000000)">
                    <g id="Page-1">
                        <path d="M21.5299555,75 C17.7215499,56.2850689 35.6878536,48 35.6878536,48 C38.4878047,64.4601338 21.5299555,75 21.5299555,75 Z M69,131 C85.6774288,134.968204 89,154 89,154 C69.7936601,150.037443 69,131 69,131 Z M163,154 C163,154 166.323158,134.968769 183,131 C183,131 182.207514,150.037443 163,154 Z M236.65065,34 C236.65065,34 229.080519,16.3467611 239.526639,4 C239.526639,4 249.002899,20.2868663 236.65065,34 Z M61.2701493,140 C48.4243896,127.57531 56.5130731,111 56.5130731,111 C67.4258184,122.238006 61.2701493,140 61.2701493,140 Z M137,166 C137,166 142.96901,146.817342 160,145 C160,145 156.528026,164.534364 137,166 Z M45.2232235,127 C35.0165661,111.559988 46.5185034,97 46.5185034,97 C55.0469929,110.795905 45.2232235,127 45.2232235,127 Z M24.0009074,24 C23.8523293,4.92971125 42,0 42,0 C41.6210424,16.6743921 24.0009074,24 24.0009074,24 Z M23.1249855,48 C21.3054091,28.6193875 39.9550397,22 39.9550397,22 C41.0107345,38.9911184 23.1249855,48 23.1249855,48 Z M32.1499234,101 C23.468201,84.6423162 35.4862062,71 35.4862062,71 C42.6788961,85.5658487 32.1499234,101 32.1499234,101 Z M115,166 C95.472471,164.534364 92,145 92,145 C109.030557,146.817342 115,166 115,166 Z M161,161.974984 C161,161.974984 178.563365,155.407549 190,166.224685 C190,166.224685 173.661871,174.724087 161,161.974984 Z M184,152.034044 C184,152.034044 201.382256,143.965991 214,154.142995 C214,154.142995 198.0369,164.091093 184,152.034044 Z M135,171.256807 C135,171.256807 153.489414,163.752222 165.52906,176.112925 C165.52906,176.112925 148.329483,185.825162 135,171.256807 Z M217,120.60204 C217,120.60204 229.857641,106.159079 246,110.987883 C246,110.987883 235.269804,126.676484 217,120.60204 Z M225,103.650944 C225,103.650944 234.728078,86.0160231 251,88.1848158 C251,88.1848158 243.524923,106.75076 225,103.650944 Z M199,139.573446 C199,139.573446 213.136559,127.473375 228,133.862221 C228,133.862221 215.746196,147.377168 199,139.573446 Z M36,120.60204 C17.7301963,126.676484 7,110.987883 7,110.987883 C23.1423593,106.159079 36,120.60204 36,120.60204 Z M126.56132,160 C129.565185,160 132,162.46239 132,165.500276 C132,168.537058 129.565185,171 126.56132,171 C126.540608,171 126.520985,170.993936 126.500273,170.993385 C126.479015,170.993936 126.459392,171 126.438135,171 C123.43536,171 121,168.537058 121,165.500276 C121,162.46239 123.43536,160 126.438135,160 C126.459392,160 126.479015,160.006064 126.500273,160.006064 C126.520985,160.006064 126.540608,160 126.56132,160 Z M52,139.573446 C35.2535683,147.377168 23,133.862221 23,133.862221 C37.8637133,127.473375 52,139.573446 52,139.573446 Z M248.989871,35 C248.989871,35 254.839537,53.0846325 238.384999,63 C238.384999,63 234.885155,44.1035534 248.989871,35 Z M250.998907,63 C250.998907,63 251.467476,81.898004 233,87 C233,87 234.998158,67.9523987 250.998907,63 Z M88,176.224685 C99.4364173,165.407549 117,171.974984 117,171.974984 C104.337818,184.724087 88,176.224685 88,176.224685 Z M38,154.142761 C50.6183102,143.966294 68,152.033809 68,152.033809 C53.9636666,164.091392 38,154.142761 38,154.142761 Z M90,161.974984 C77.3383707,174.724087 61,166.224685 61,166.224685 C72.43697,155.407549 90,161.974984 90,161.974984 Z M3.01012947,35 C17.1148453,44.1035534 13.6150006,63 13.6150006,63 C-2.83953664,53.0846325 3.01012947,35 3.01012947,35 Z M230.470045,75 C230.470045,75 213.512195,64.4601338 216.312146,48 C216.312146,48 234.27845,56.2850689 230.470045,75 Z M19,87 C0.531939231,81.8985643 1.0010968,63 1.0010968,63 C17.0029259,67.9523987 19,87 19,87 Z M12.4735967,4 C22.9195368,16.3467611 15.3491495,34 15.3491495,34 C2.99701591,20.2868663 12.4735967,4 12.4735967,4 Z M26,103.650944 C7.47563735,106.75076 0,88.1848158 0,88.1848158 C16.2719221,86.0160231 26,103.650944 26,103.650944 Z M190.729685,140 C190.729685,140 184.574393,122.238006 195.48687,111 C195.48687,111 203.575737,127.57531 190.729685,140 Z M218.84986,101 C218.84986,101 208.321397,85.5658487 215.513578,71 C215.513578,71 227.532086,84.6423162 218.84986,101 Z M207.7769,127 C207.7769,127 197.952876,110.795905 206.481587,97 C206.481587,97 217.983295,111.559988 207.7769,127 Z M213.045008,22 C213.045008,22 231.694586,28.6193875 229.875015,48 C229.875015,48 211.988729,38.9911184 213.045008,22 Z M210,0 C210,0 228.146567,4.92971125 227.999106,24 C227.999106,24 210.379503,16.6743921 210,0 Z" id="Combined-Shape" fill="url(#linearGradient-1)"></path>
                        <g id="Group-29" transform="translate(135.000000, 169.000000)"></g>
                    </g>
                </g>
            </g>
        </g>
    </g>
</svg>